<svg xmlns="http://www.w3.org/2000/svg" width="37.241" height="27.931" viewBox="0 0 37.241 27.931">
  <g id="Group_6564" data-name="Group 6564" transform="translate(-820.775 -997)">
    <path id="Icon_awesome-envelope" data-name="Icon awesome-envelope" d="M36.535,9.5a.438.438,0,0,1,.706.342V24.72a3.492,3.492,0,0,1-3.491,3.491H3.491A3.492,3.492,0,0,1,0,24.72V9.853a.435.435,0,0,1,.706-.342c1.629,1.266,3.79,2.873,11.209,8.263,1.535,1.12,4.124,3.477,6.706,3.462,2.6.022,5.237-2.386,6.714-3.462C32.753,12.384,34.906,10.769,36.535,9.5Z" transform="translate(820.775 996.719)" fill="#fff"/>
    <path id="Icon_awesome-envelope-2" data-name="Icon awesome-envelope" d="M18.62,23.12c1.687.029,4.117-2.124,5.339-3.011,9.652-7,10.387-7.615,12.612-9.361a1.741,1.741,0,0,0,.669-1.375V7.991A3.492,3.492,0,0,0,33.749,4.5H3.491A3.492,3.492,0,0,0,0,7.991V9.373a1.751,1.751,0,0,0,.669,1.375c2.226,1.738,2.96,2.357,12.612,9.361C14.5,21,16.933,23.149,18.62,23.12Z" transform="translate(820.775 992.5)" fill="#fff"/>
  </g>
</svg>
