<svg xmlns="http://www.w3.org/2000/svg" width="31.723" height="39.605" viewBox="0 0 31.723 39.605">
  <g id="Group_4487" data-name="Group 4487" transform="translate(-116.202 -943.868)">
    <path id="Path_39448" data-name="Path 39448" d="M2.79,11.746a11.68,11.68,0,0,0,.577,3.619A10.439,10.439,0,0,0,3.8,16.5,10.763,10.763,0,0,0,4.34,17.55l.81,1.3c.066.115.124.214.187.332.248.444.523.876.767,1.323.066.121.133.221.2.341.369.674.779,1.329,1.154,2l4.048,7c.073.118.136.227.2.341l1.347,2.329c.275.465.9,1.172,1.477,1.172a1.827,1.827,0,0,0,1.32-.867c.272-.332.918-1.48,1.193-1.958.03-.054.057-.1.091-.16.039-.072.069-.109.1-.169l1.257-2.145c.036-.066.066-.1.1-.169s.06-.1.091-.16l2.435-4.139c.221-.387.468-.767.677-1.16.036-.066.066-.1.1-.169l.193-.329c.281-.5.6-.982.87-1.489l1.849-3.142a7.242,7.242,0,0,0,.677-1.414c.115-.32.254-.64.353-.961a11.609,11.609,0,0,0,.363-1.5,8.922,8.922,0,0,0,.157-1.408c0-.2.018-.323.018-.523a8,8,0,0,0-.036-.852c-.006-.063,0-.127,0-.19a13.69,13.69,0,0,0-.393-2.16c-.048-.2-.112-.372-.175-.562-.127-.381-.263-.707-.414-1.057l-.23-.483c-.163-.326-.344-.631-.529-.94a10.517,10.517,0,0,0-.991-1.368L22.04,2.671A14.258,14.258,0,0,0,20.656,1.7c-.045-.024-.076-.039-.124-.069-.085-.051-.148-.085-.233-.136s-.163-.079-.242-.124a5.212,5.212,0,0,0-.483-.251A11.845,11.845,0,0,0,17.711.427l-.29-.079L16.2.119A10.571,10.571,0,0,0,14.928.01h-.583a12.986,12.986,0,0,0-2.532.32A10.193,10.193,0,0,0,9.907.977,12.079,12.079,0,0,0,7.6,2.306,14.5,14.5,0,0,0,6.044,3.671c-.069.069-.1.124-.175.193l-.251.29c-.039.045-.048.051-.091.1-.057.073-.112.133-.166.2a11.889,11.889,0,0,0-1.29,2l-.239.5a8.227,8.227,0,0,0-.366.891,12.694,12.694,0,0,0-.6,2.519c-.03.218-.048.453-.066.671-.009.121.009.242-.006.363a2.562,2.562,0,0,0-.015.353Zm11.8-5.852a6.311,6.311,0,1,1-6.311,6.311,6.31,6.31,0,0,1,6.311-6.311Z" transform="translate(117.478 943.858)" fill="#fff" fill-rule="evenodd"/>
    <path id="Path_39453" data-name="Path 39453" d="M-.017,24.356A3.44,3.44,0,0,0,.188,25.5a2.863,2.863,0,0,0,.341.7,5.542,5.542,0,0,0,.764.958L2.43,28.1l.535.335c.039.024.069.039.112.063.076.045.142.085.224.124.384.193.761.42,1.163.58l2.03.737c.1.033.169.048.272.079l.541.154.556.139a32.177,32.177,0,0,0,4.486.716l.656.042a.986.986,0,0,1,.157.015c.16.018.317.009.489.033.145.021,1.459.045,1.683.045h.012l2.166-.018,1.637-.1c.683-.094,1.4-.13,2.078-.245.169-.027.335-.039.508-.073.967-.175,1.942-.356,2.861-.619l1.335-.408c.085-.027.13-.048.211-.079a11.557,11.557,0,0,0,1.444-.586c.127-.063.269-.124.387-.193.06-.036.13-.066.193-.1l.737-.423a9.8,9.8,0,0,0,1.169-.864,5.882,5.882,0,0,0,.716-.734A3.922,3.922,0,0,0,31.7,24.45v-.1a1.531,1.531,0,0,1-.018-.181,2.931,2.931,0,0,0-.526-1.5,5.273,5.273,0,0,0-1.489-1.414l-.356-.224c-.187-.1-.366-.224-.562-.308l-.791-.369c-.2-.1-.423-.166-.625-.245l-1.088-.363c-.529-.142-1.082-.3-1.616-.414-.646-.139-1.29-.287-1.955-.366a4.456,4.456,0,0,0-.508-.076l-.574.991-.094.157a.382.382,0,0,0-.085.184,2.155,2.155,0,0,1,.269.042c.453.076.921.139,1.375.23s.888.169,1.329.3l1.933.637c.091.036.145.063.23.1a5.305,5.305,0,0,1,.852.444l.7.571a1.206,1.206,0,0,1,.118,1.68,2.564,2.564,0,0,1-.511.5,6.047,6.047,0,0,1-.779.477,6.975,6.975,0,0,1-.855.384c-.115.042-.245.094-.369.136s-.254.1-.375.13c-.136.039-.254.079-.384.118-.532.154-1.069.275-1.61.4-.562.13-1.13.205-1.692.3-.281.048-.586.079-.885.121s-.6.051-.909.1c-.154.021-.293.015-.447.036-.136.018-.308.018-.462.042a3.463,3.463,0,0,1-.471.03c-.308,0-.653.039-.967.039l-.483.021c-.187,0-.317.021-.483.018h-.927c-.344,0-.646-.018-.967-.018-.079,0-.172,0-.251,0a2.206,2.206,0,0,0-.233-.021c-.311,0-.634-.039-.949-.039l-1.4-.109c-.3-.042-.607-.06-.888-.1a25.528,25.528,0,0,1-4.187-.822c-.254-.079-.5-.142-.749-.239l-.366-.139A9.485,9.485,0,0,1,4.6,25.118c-.109-.06-.211-.118-.314-.187-.057-.039-.1-.06-.154-.1s-.1-.073-.145-.109a1.774,1.774,0,0,1-.813-1.2,1.372,1.372,0,0,1,.411-1,3.915,3.915,0,0,1,.713-.562,8.093,8.093,0,0,1,1.77-.8c.079-.024.142-.051.23-.082l.492-.145c.091-.027.163-.054.254-.076.882-.218,1.755-.417,2.652-.556l.571-.085a5.4,5.4,0,0,0-.378-.668c-.069-.115-.127-.214-.19-.332s-.124-.214-.187-.335a2.6,2.6,0,0,0-.408.057l-.8.127c-.514.082-1.036.19-1.538.317-.625.157-1.248.314-1.846.514-.121.039-.242.085-.344.118a7.864,7.864,0,0,0-.84.32l-1.55.791-.936.707A4.48,4.48,0,0,0,.79,22.3l-.205.26a3.458,3.458,0,0,0-.19.293A3.184,3.184,0,0,0-.02,24.3v.036Z" transform="translate(116.222 952.313)" fill="#fff" fill-rule="evenodd"/>
  </g>
</svg>
