<svg xmlns="http://www.w3.org/2000/svg" width="43" height="43" viewBox="0 0 43 43">
  <circle id="Ellipse_421" data-name="Ellipse 421" cx="21.5" cy="21.5" r="21.5" fill="#0b264b"/>
  <path id="Icon_metro-calendar" data-name="Icon metro-calendar" d="M9.069,9.726h2.6v2.6h-2.6Zm3.9,0h2.6v2.6h-2.6Zm3.9,0h2.6v2.6h-2.6Zm-11.7,7.8h2.6v2.6H5.17Zm3.9,0h2.6v2.6h-2.6Zm3.9,0h2.6v2.6h-2.6Zm-3.9-3.9h2.6v2.6h-2.6Zm3.9,0h2.6v2.6h-2.6Zm3.9,0h2.6v2.6h-2.6Zm-11.7,0h2.6v2.6H5.17Zm14.3-11.7v1.3h-2.6v-1.3h-9.1v1.3H5.17v-1.3h-2.6V22.722H22.065V1.928h-2.6Zm1.3,19.494H3.87V7.127h16.9Z" transform="translate(9.1 9.098)" fill="#fff"/>
</svg>
