<svg xmlns="http://www.w3.org/2000/svg" width="43" height="43" viewBox="0 0 43 43">
  <circle id="Ellipse_423" data-name="Ellipse 423" cx="21.5" cy="21.5" r="21.5" fill="#0b264b"/>
  <g id="Group_4945" data-name="Group 4945" transform="translate(8.707 6.5)">
    <path id="Path_6163" data-name="Path 6163" d="M-303.111,229.12a1,1,0,0,1,1.1-.674c.535.021,1.072,0,1.637,0v-.335q0-4.376,0-8.753a.866.866,0,0,1,.244-.764,1.228,1.228,0,0,1,.648-.262c1.319-.025,2.639-.017,3.959-.012a.842.842,0,0,1,.911.829.838.838,0,0,1-.9.872c-.92.013-1.841,0-2.761,0h-.382v8.406h4.617V228.1q0-5.952,0-11.9a2.626,2.626,0,0,1,.031-.466.8.8,0,0,1,.774-.682c.442-.017.885-.008,1.328-.009q2.722,0,5.444,0a.845.845,0,0,1,.925.7.838.838,0,0,1-.678.98,2.484,2.484,0,0,1-.389.021q-2.7,0-5.392,0h-.319v11.688h5.089v-.286q0-4.91,0-9.821a.865.865,0,0,1,.648-.944.831.831,0,0,1,1.022.608,1.941,1.941,0,0,1,.04.439q0,4.845,0,9.691v.321h4.618v-5.779h-.278c-.955,0-1.91,0-2.865,0a.854.854,0,0,1-.894-.742.835.835,0,0,1,.824-.963q2.045-.022,4.09,0a.852.852,0,0,1,.846.955c.007.99,0,1.98,0,2.97q0,1.615,0,3.23c0,.1,0,.207,0,.348h.788c.339,0,.677-.005,1.016,0a.868.868,0,0,1,.927.852.862.862,0,0,1-.943.857q-6.122,0-12.244,0-6.213,0-12.426.006a.986.986,0,0,1-1.065-.683Z" transform="translate(303.111 -203.482)" fill="#fff"/>
    <path id="Path_6164" data-name="Path 6164" d="M-177.328,37.647a1.635,1.635,0,0,1,1.031.957c.265.546.54,1.087.8,1.635a.372.372,0,0,0,.33.234c.738.1,1.482.193,2.207.358a1.154,1.154,0,0,1,.624,1.935c-.485.553-1.031,1.055-1.561,1.568a.426.426,0,0,0-.137.435c.118.631.226,1.263.334,1.9a1.261,1.261,0,0,1-.837,1.533,1.514,1.514,0,0,1-1.127-.188c-.561-.293-1.124-.583-1.68-.886a.348.348,0,0,0-.38,0c-.548.3-1.1.592-1.658.872a2.108,2.108,0,0,1-.632.223,1.145,1.145,0,0,1-1.369-1.263c.057-.715.2-1.424.331-2.132a.505.505,0,0,0-.158-.525c-.511-.483-1.027-.964-1.493-1.488a1.162,1.162,0,0,1,.641-1.99c.708-.162,1.435-.248,2.156-.344a.39.39,0,0,0,.341-.258c.257-.54.528-1.074.789-1.612a1.638,1.638,0,0,1,1.031-.958Zm-3.356,4.665c.33.36.646.753,1.012,1.092a1.169,1.169,0,0,1,.39,1.212c-.108.488-.171.987-.262,1.536.5-.262.96-.482,1.4-.739a1.115,1.115,0,0,1,1.225,0c.44.256.9.479,1.4.742-.1-.561-.171-1.074-.275-1.58a1.119,1.119,0,0,1,.356-1.126c.376-.357.711-.758,1.054-1.131-.015,0-.087-.021-.16-.032-.437-.065-.873-.152-1.313-.187a1.078,1.078,0,0,1-.982-.727c-.09-.215-.2-.421-.308-.631-.121-.244-.243-.487-.387-.776-.266.538-.514,1.022-.746,1.514a1,1,0,0,1-.84.606C-179.662,42.15-180.2,42.24-180.684,42.312Z" transform="translate(190.876 -37.647)" fill="#fff"/>
    <path id="Path_6165" data-name="Path 6165" d="M-146.627,75.567c.484-.072,1.021-.162,1.561-.228a1,1,0,0,0,.84-.606c.232-.491.48-.976.746-1.514.144.289.266.533.387.776.1.21.218.415.308.631a1.078,1.078,0,0,0,.982.727c.44.035.876.122,1.313.187.073.011.146.029.16.032-.344.373-.678.774-1.055,1.131a1.119,1.119,0,0,0-.356,1.126c.1.507.179,1.02.275,1.58-.5-.263-.959-.487-1.4-.742a1.115,1.115,0,0,0-1.225,0c-.438.257-.9.477-1.4.739.092-.549.155-1.048.262-1.536a1.169,1.169,0,0,0-.39-1.212C-145.981,76.32-146.3,75.927-146.627,75.567Z" transform="translate(156.82 -70.902)" fill="#0b264b"/>
  </g>
</svg>
