<svg xmlns="http://www.w3.org/2000/svg" width="25.484" height="22" viewBox="0 0 25.484 22">
  <g id="certificate" transform="translate(0 477)">
    <path id="Path_6538" data-name="Path 6538" d="M.523-476.93a1.044,1.044,0,0,0-.468.493A14.609,14.609,0,0,0,0-474.606c0,1.623,0,1.692.1,1.787a.456.456,0,0,0,.528.03c.09-.07.095-.159.119-1.757l.025-1.682H24.713l.015,9.193.01,9.2-.11.025c-.065.015-1.165.02-2.454.015l-2.339-.015-.015-.388-.015-.383h3.922l.1-.114c.11-.115.11-.129.11-2.215,0-2.036,0-2.105-.1-2.2a.372.372,0,0,0-.543.03c-.1.129-.1.189-.1,1.941v1.812H19.81v-1.643h.329a.791.791,0,0,0,.821-.428,1.16,1.16,0,0,0,.085-.657l-.015-.443.333-.353c.567-.6.567-.966,0-1.553a2.242,2.242,0,0,1-.319-.373c0-.025-.01-.239-.015-.473-.02-.781-.3-1.04-1.145-1.045H19.5l-.314-.3c-.617-.6-1.015-.592-1.613.02l-.269.279h-.4c-.866,0-1.165.3-1.17,1.145v.428l-.279.269c-.607.592-.612,1.015-.03,1.608l.284.289.03.513a1.34,1.34,0,0,0,.134.687.93.93,0,0,0,.771.378l.284.02v1.633H2.29v-15.38h20.9v4.972c0,4.952,0,4.967.1,5.1a.372.372,0,0,0,.543.03c.1-.1.1-.164.1-5.376s0-5.276-.1-5.376-.164-.1-11.1-.1-11,0-11.1.1-.1.164-.1,8.327v8.233l.114.1.114.109H16.923v.8H8.914c-4.4,0-8.043-.015-8.088-.03-.07-.03-.08-.672-.08-6.759,0-6.7,0-6.729-.1-6.839a.411.411,0,0,0-.548-.01c-.1.1-.1.164-.1,6.879,0,6.475,0,6.794.095,6.983a1.072,1.072,0,0,0,.194.289c.264.239-.02.229,8.561.234h8.073v.816c0,1.324.085,1.414.976,1l.488-.229.488.229a3.02,3.02,0,0,0,.582.224.465.465,0,0,0,.224-.1l.129-.1v-1.832l2.529-.015,2.529-.015.214-.139a.892.892,0,0,0,.309-.348c.09-.2.095-.478.095-9.482,0-7.765-.01-9.3-.07-9.432a.979.979,0,0,0-.493-.478c-.1-.04-3.793-.055-12.195-.055C2.767-477,.647-476.985.523-476.93ZM18.7-466.02a1.245,1.245,0,0,0,1.115.468c.5,0,.483-.02.478.557a1.038,1.038,0,0,0,.139.637,1.776,1.776,0,0,0,.348.433,1.122,1.122,0,0,1,.239.244c.02.055-.065.174-.249.358a1.284,1.284,0,0,0-.488,1.125l0,.453-.528.025a1.137,1.137,0,0,0-1.09.508l-.274.3-.319-.333a4.633,4.633,0,0,0-.423-.388,2.74,2.74,0,0,0-.627-.085l-.523-.025-.025-.5a1.2,1.2,0,0,0-.468-1.07,1.392,1.392,0,0,1-.279-.324,1.4,1.4,0,0,1,.279-.324,1.2,1.2,0,0,0,.468-1.07l.025-.5.5-.025a1.2,1.2,0,0,0,1.07-.468,1.4,1.4,0,0,1,.324-.279A1.335,1.335,0,0,1,18.7-466.02Zm-.363,5.843a.828.828,0,0,0,.587-.239l.134-.129v4.554l-.11-.035a1.848,1.848,0,0,1-.3-.124c-.239-.119-.269-.119-.607.03a1.933,1.933,0,0,1-.329.124,21.56,21.56,0,0,1-.05-2.26v-2.265l.254.174A.851.851,0,0,0,18.342-460.177Z" transform="translate(0 0)" fill="#fbb415"/>
    <path id="Path_6539" data-name="Path 6539" d="M341.417-237.676a1.453,1.453,0,0,0-.249,2.708,1.445,1.445,0,0,0,1.752-.388,1.285,1.285,0,0,0,.319-.941A1.453,1.453,0,0,0,341.417-237.676Zm.752.821a.682.682,0,0,1,.319.572.693.693,0,0,1-.378.632.7.7,0,0,1-.9-1.02A.716.716,0,0,1,342.169-236.855Z" transform="translate(-323.409 -227.363)" fill="#047475"/>
    <path id="Path_6540" data-name="Path 6540" d="M90.282-383.683a.385.385,0,0,0-.114.6c.1.1.164.1,6.695.1s6.6,0,6.695-.1a.385.385,0,0,0,0-.5l-.095-.119-6.54-.01C93.219-383.723,90.347-383.708,90.282-383.683Z" transform="translate(-85.588 -88.638)" fill="#047475"/>
    <path id="Path_6541" data-name="Path 6541" d="M90.218-337.871a.334.334,0,0,0,.02.493l.119.124h16.017l.134-.1a.346.346,0,0,0,.015-.533l-.114-.11H90.317Z" transform="translate(-85.634 -132.081)" fill="#047475"/>
    <path id="Path_6542" data-name="Path 6542" d="M90.17-291.9a.385.385,0,0,0,0,.5l.095.119,4.5.015c2.469.01,4.569,0,4.659-.015a.375.375,0,0,0,.259-.622c-.1-.1-.164-.1-4.753-.1S90.27-292,90.17-291.9Z" transform="translate(-85.591 -175.792)" fill="#047475"/>
    <path id="Path_6543" data-name="Path 6543" d="M94.228-244.86c-.114.065-.189.348-.189.717a11.84,11.84,0,0,1-.523,2.907,2.626,2.626,0,0,0-.154.677.291.291,0,0,0,.154.164c.348.159.513,0,.737-.712.095-.3.189-.627.209-.722L94.5-242l.119.274a1.2,1.2,0,0,0,.6.707.812.812,0,0,0,.871-.129l.209-.159.229.144c.329.2.732.244,2.245.224,1.289-.015,1.294-.015,1.389-.134a.4.4,0,0,0,.01-.5c-.085-.1-.139-.1-1.593-.114-1.717-.015-1.687-.01-1.862-.458-.1-.274-.159-.329-.343-.329s-.324.114-.443.363c-.129.269-.324.458-.428.413-.189-.07-.418-.881-.572-2.021-.129-.981-.144-1.03-.234-1.12A.492.492,0,0,0,94.228-244.86Z" transform="translate(-88.713 -220.538)" fill="#047475"/>
  </g>
</svg>
