<svg id="Group_206" data-name="Group 206" xmlns="http://www.w3.org/2000/svg" width="24.973" height="20.83" viewBox="0 0 24.973 20.83">
  <path id="mortarboard" d="M24.487,48.037a.732.732,0,0,0,0-1.379L12.73,42.511a.731.731,0,0,0-.487,0L.488,46.658a.732.732,0,0,0,0,1.379l4.657,1.655v4.773c0,.788.822,1.454,2.442,1.98a16.358,16.358,0,0,0,4.9.711,16.358,16.358,0,0,0,4.9-.711c1.621-.526,2.442-1.192,2.442-1.98V49.693l1.923-.683v6.613a2.2,2.2,0,0,0,0,4.151v2.794a.732.732,0,1,0,1.463,0V59.774a2.2,2.2,0,0,0,0-4.151V48.489Zm-2,10.4a.738.738,0,1,1,.738-.738A.739.739,0,0,1,22.484,58.436Zm-10-14.459,9.563,3.374-9.563,3.4-9.563-3.4Zm5.88,10.379a4.519,4.519,0,0,1-1.775.8,15.426,15.426,0,0,1-4.1.535,15.427,15.427,0,0,1-4.1-.535,4.518,4.518,0,0,1-1.775-.8V50.213l5.635,2a.731.731,0,0,0,.49,0l5.635-2v4.142Z" transform="translate(0 -42.469)" fill="#444"/>
</svg>
