<svg xmlns="http://www.w3.org/2000/svg" width="194" height="20.474" viewBox="0 0 194 20.474">
  <g id="Group_5361" data-name="Group 5361" transform="translate(-1029 -325.859)">
    <g id="Group_4836" data-name="Group 4836" transform="translate(148 -1694.196)">
      <rect id="Rectangle_265" data-name="Rectangle 265" width="80" height="3" transform="translate(881 2028)" fill="#fbb415"/>
      <rect id="Rectangle_266" data-name="Rectangle 266" width="80" height="3" transform="translate(995 2028)" fill="#fbb415"/>
    </g>
    <path id="Path_7718" data-name="Path 7718" d="M31.232-495.876c-.124.124-.124.132-.124.62v.5h-.97a3.37,3.37,0,0,0-1.842.273,2.318,2.318,0,0,0-1.047,1.184l-.094.231-.013,6.281c-.009,4.414,0,6.35.038,6.508a2.328,2.328,0,0,0,1.094,1.453c.513.269.385.265,4.952.265h4.149l.192.4a4.807,4.807,0,0,0,7.576,1.346,5.1,5.1,0,0,0,1.325-2.183,4.8,4.8,0,0,0-2.457-5.585A5.924,5.924,0,0,0,42.871-485l-.141-.03v-3.94a33.521,33.521,0,0,0-.068-4.175,2.257,2.257,0,0,0-1-1.3c-.461-.269-.585-.291-1.8-.312l-1.1-.017v-.491c0-.483,0-.491-.124-.615a.365.365,0,0,0-.282-.124c-.355,0-.449.162-.449.79v.449H31.963v-.449c0-.628-.094-.79-.449-.79A.365.365,0,0,0,31.232-495.876Zm-.124,2.508c0,.487,0,.5.124.62a.354.354,0,0,0,.3.124.354.354,0,0,0,.3-.124c.124-.124.124-.132.124-.62v-.5H37.9v.423a2.578,2.578,0,0,0,.038.53.418.418,0,0,0,.7.162c.137-.12.137-.12.154-.62l.021-.5h1a3.247,3.247,0,0,1,1.231.09,1.38,1.38,0,0,1,.709.658c.1.2.107.273.12.906l.017.7H27.98l.017-.675c.017-.62.026-.688.128-.906a1.177,1.177,0,0,1,.423-.526c.291-.218.4-.239,1.525-.239l1.034,0Zm10.768,5.487v2.777h-.2a5.457,5.457,0,0,0-1.359.261,4.793,4.793,0,0,0-3.235,4.418,7.2,7.2,0,0,0,.026.739l.034.269-4.051-.013-4.055-.013-.239-.111a1.366,1.366,0,0,1-.675-.675l-.111-.239L28-485.51c0-2.769,0-5.063.009-5.093.017-.047,1.35-.055,6.948-.055h6.922Zm.414,3.679a3.933,3.933,0,0,1,2.589,1.393,3.55,3.55,0,0,1,.6,1,3.925,3.925,0,0,1-.359,3.67,4.025,4.025,0,0,1-2.282,1.637,4.909,4.909,0,0,1-1.966,0,4.022,4.022,0,0,1-2.782-2.722,2.754,2.754,0,0,1-.12-1.068,2.864,2.864,0,0,1,.094-1.017,3.983,3.983,0,0,1,3.718-2.931C41.833-484.245,42.064-484.228,42.29-484.2Z" transform="translate(1091.261 821.859)" fill="#047475"/>
    <path id="Path_7719" data-name="Path 7719" d="M110.721-282.883a.441.441,0,0,0-.073.761c.111.073.295.077,3.619.077s3.508,0,3.619-.077a.492.492,0,0,0,.162-.226.3.3,0,0,0-.03-.3.516.516,0,0,0-.184-.214,35.5,35.5,0,0,0-3.568-.051C112.366-282.918,110.768-282.9,110.721-282.883Z" transform="translate(1011.499 617.882)" fill="#fbb415"/>
    <path id="Path_7720" data-name="Path 7720" d="M110.649-216.931a.389.389,0,0,0-.231.214.381.381,0,0,0,.141.53l.145.1h2.09a10.982,10.982,0,0,0,2.235-.064.423.423,0,0,0-.1-.791C114.7-217.008,110.846-217,110.649-216.931Z" transform="translate(1011.592 554.769)" fill="#fbb415"/>
    <path id="Path_7721" data-name="Path 7721" d="M314.5-167.735c-.158.15-.714.671-1.231,1.162s-1,.957-1.081,1.025l-.137.128-.718-.709a5.015,5.015,0,0,0-.833-.744.423.423,0,0,0-.5.44c0,.15.051.209.923,1.085,1,1,1.064,1.047,1.325.906.158-.085,2.893-2.679,3.042-2.884a.413.413,0,0,0-.329-.675C314.811-168,314.756-167.97,314.5-167.735Z" transform="translate(820.488 507.875)" fill="#fbb415"/>
  </g>
</svg>
