<svg id="Group_5342" data-name="Group 5342" xmlns="http://www.w3.org/2000/svg" width="35.262" height="30.031" viewBox="0 0 35.262 30.031">
  <path id="mortarboard" d="M34.575,50.5a1.062,1.062,0,0,0,0-1.989l-16.6-5.979a1.012,1.012,0,0,0-.687,0L.689,48.509a1.062,1.062,0,0,0,0,1.989l6.575,2.387v6.881c0,1.136,1.16,2.1,3.449,2.854a22.657,22.657,0,0,0,6.92,1.025,22.657,22.657,0,0,0,6.92-1.025C26.839,61.86,28,60.9,28,59.764V52.884l2.715-.985v9.534a3.2,3.2,0,0,0,0,5.985v4.028a1.033,1.033,0,1,0,2.066,0V67.417a3.2,3.2,0,0,0,0-5.985V51.148ZM31.747,65.488a1.064,1.064,0,1,1,1.042-1.064A1.054,1.054,0,0,1,31.747,65.488ZM17.631,44.642l13.5,4.865-13.5,4.9-13.5-4.9Zm8.3,14.963a6.328,6.328,0,0,1-2.507,1.158,21.36,21.36,0,0,1-5.8.771,21.36,21.36,0,0,1-5.8-.771,6.327,6.327,0,0,1-2.507-1.158V53.634l7.957,2.888a1.012,1.012,0,0,0,.692,0l7.957-2.888v5.972Z" transform="translate(0 -42.469)" fill="#fbb415"/>
</svg>
