<svg xmlns="http://www.w3.org/2000/svg" width="43" height="43" viewBox="0 0 43 43">
  <circle id="Ellipse_424" data-name="Ellipse 424" cx="21.5" cy="21.5" r="21.5" fill="#0b264b"/>
  <path id="Icon_awesome-globe-asia" data-name="Icon awesome-globe-asia" d="M11.624.563A11.624,11.624,0,1,0,23.248,12.187,11.624,11.624,0,0,0,11.624.563Zm-.532,11.26a.75.75,0,0,1-.643.364h-.015a.75.75,0,0,0-.53.22l-.265.265a.375.375,0,0,0,0,.53l.265.265a.75.75,0,0,1,.22.53v.439a.75.75,0,0,1-.75.75H9.088a.749.749,0,0,1-.671-.415l-1.06-2.12a.375.375,0,0,0-.6-.1l-.913.912a.75.75,0,0,1-.53.22H2.382A9.356,9.356,0,0,1,14.513,3.273L12.162,5.079a.375.375,0,0,0,.04.647l.508.254a.75.75,0,0,1,.414.671v3.662a.375.375,0,0,1-.375.375h-.143a.374.374,0,0,1-.335-.207.208.208,0,0,0-.364-.014l-.814,1.357Zm8.031,5.165a.75.75,0,0,1-.22.53l-.449.449a.75.75,0,0,1-.53.22h-.711a.75.75,0,0,1-.53-.22l-.61-.61a1.255,1.255,0,0,0-1.191-.33l-1,.249a.743.743,0,0,1-.182.022H13.22a.75.75,0,0,1-.53-.22l-.558-.558a.375.375,0,0,1-.11-.265v-.478a.375.375,0,0,1,.236-.348l1.844-.738a1.257,1.257,0,0,0,.262-.143l1.111-.792a.374.374,0,0,1,.217-.069h.567a.375.375,0,0,1,.346.231l.251.6a.187.187,0,0,0,.173.115h.178a.187.187,0,0,0,.18-.135l.2-.678a.187.187,0,0,1,.18-.135h.284a.187.187,0,0,1,.187.187v.606a.375.375,0,0,0,.11.265l.558.558a.75.75,0,0,1,.22.53v1.153Z" transform="matrix(0.985, 0.174, -0.174, 0.985, 12.719, 6.795)" fill="#fff"/>
</svg>
