<svg xmlns="http://www.w3.org/2000/svg" width="31.248" height="29.564" viewBox="0 0 31.248 29.564">
  <g id="Group_4488" data-name="Group 4488" transform="translate(-782.139 -948.886)">
    <path id="Icon_material-phone-in-talk" data-name="Icon material-phone-in-talk" d="M26.275,19.282h3.285A14.783,14.783,0,0,0,14.778,4.5V7.785A11.489,11.489,0,0,1,26.275,19.282Zm-6.57,0H22.99a8.215,8.215,0,0,0-8.212-8.212v3.285A4.921,4.921,0,0,1,19.7,19.282Z" transform="translate(783.828 944.386)" fill="#fff"/>
    <path id="Icon_material-phone-in-talk-2" data-name="Icon material-phone-in-talk" d="M32.421,25.03a18.659,18.659,0,0,1-5.863-.936,1.676,1.676,0,0,0-1.675.394L21.269,28.1A24.711,24.711,0,0,1,10.446,17.278l3.613-3.63a1.577,1.577,0,0,0,.411-1.642,18.658,18.658,0,0,1-.936-5.863A1.647,1.647,0,0,0,11.891,4.5H6.142A1.647,1.647,0,0,0,4.5,6.142,27.919,27.919,0,0,0,32.421,34.064a1.647,1.647,0,0,0,1.642-1.642V26.673A1.647,1.647,0,0,0,32.421,25.03Z" transform="translate(777.639 944.386)" fill="#fff"/>
  </g>
</svg>
