<svg xmlns="http://www.w3.org/2000/svg" width="43" height="43" viewBox="0 0 43 43">
  <circle id="Ellipse_422" data-name="Ellipse 422" cx="21.5" cy="21.5" r="21.5" fill="#0b264b"/>
  <g id="Group_4944" data-name="Group 4944" transform="translate(13.008 8.821)">
    <path id="Path_6159" data-name="Path 6159" d="M-232.586,711c1.011.716,2.122,1.264,3.181,1.9,1.082.651,2.185,1.266,3.279,1.9a1.3,1.3,0,0,1,.69,1.191c.007,2.429,0,4.859,0,7.288a1.25,1.25,0,0,1-.662,1.144c-2.12,1.237-4.239,2.477-6.366,3.7a1.2,1.2,0,0,1-1.268-.038q-3.159-1.842-6.326-3.668a1.226,1.226,0,0,1-.648-1.143c-.005-2.394,0-4.787,0-7.181a1.478,1.478,0,0,1,.837-1.379c2.148-1.228,4.285-2.474,6.427-3.713Z" transform="translate(240.708 -711)" fill="#fff"/>
    <path id="Path_6160" data-name="Path 6160" d="M-214.923,867.639c.753.428,1.463.8,2.141,1.224a2.53,2.53,0,0,0,2.776.029l2.213-1.25c.484,2.164.959,4.28,1.43,6.4a.7.7,0,0,1-.214.778.7.7,0,0,1-.846,0c-1.089-.644-2.193-1.261-3.268-1.926a1.114,1.114,0,0,0-1.33-.014c-1.041.652-2.117,1.249-3.171,1.879-.31.186-.608.31-.938.072a.759.759,0,0,1-.213-.879C-215.879,871.861-215.406,869.778-214.923,867.639Z" transform="translate(219 -850.834)" fill="#fff"/>
    <path id="Path_6161" data-name="Path 6161" d="M-217.477,742.268c0-.875.013-1.75-.008-2.625a.523.523,0,0,1,.3-.543q2.295-1.309,4.573-2.648a.463.463,0,0,1,.533,0q2.3,1.347,4.619,2.673a.466.466,0,0,1,.259.469q-.01,2.652,0,5.3a.556.556,0,0,1-.309.558q-2.3,1.3-4.581,2.643a.434.434,0,0,1-.521-.011c-1.5-.882-3.01-1.761-4.531-2.614a.607.607,0,0,1-.349-.631c.014-.857.005-1.714.005-2.571Z" transform="translate(219.983 -733.644)" fill="#0b264b"/>
    <path id="Path_6162" data-name="Path 6162" d="M-199.935,768.021c.067-.436.112-.9.217-1.35a.766.766,0,0,0-.279-.849,9.87,9.87,0,0,1-.89-.852c-.331-.361-.2-.714.279-.807a4.032,4.032,0,0,1,.9-.11,1.049,1.049,0,0,0,1.155-.806,9.7,9.7,0,0,1,.462-.963.449.449,0,0,1,.409-.286c.212-.013.259.157.333.295.059.11.107.225.162.337.65,1.307.649,1.312,2.091,1.5.275.036.553.057.663.353.118.319-.12.512-.335.661a1.869,1.869,0,0,0-.84,2.413,1.727,1.727,0,0,1,.074.475c.031.4-.248.61-.611.439-.419-.2-.826-.421-1.226-.655a.667.667,0,0,0-.748.007c-.384.226-.779.435-1.179.628C-199.665,768.632-199.927,768.454-199.935,768.021Z" transform="translate(205.324 -756.526)" fill="#fff"/>
  </g>
</svg>
