<svg xmlns="http://www.w3.org/2000/svg" width="65" height="35.988" viewBox="0 0 65 35.988">
  <g id="_26640_Converted_" data-name="26640 [Converted]" transform="translate(-41.416 -28.226)">
    <g id="background" transform="translate(41.416 28.286)">
      <g id="Group_5213" data-name="Group 5213">
        <rect id="Rectangle_3462" data-name="Rectangle 3462" width="62.448" height="35.869" fill="#fff"/>
      </g>
    </g>
    <g id="object" transform="translate(41.598 28.226)">
      <g id="Group_5222" data-name="Group 5222" transform="translate(0 0)">
        <g id="XMLID_605_">
          <g id="XMLID_606_">
            <g id="XMLID_607_">
              <path id="Path_7623" data-name="Path 7623" d="M65.875,39.924c-.272,0-.543.01-.81.028a11.225,11.225,0,0,0-17.728-6.917A11.8,11.8,0,0,0,25.33,38.749a11.572,11.572,0,0,0,.063,1.2q-.4-.027-.807-.028a11.606,11.606,0,1,0,0,23.209H65.875a11.606,11.606,0,1,0,0-23.209Z" transform="translate(-12.821 -27.144)" fill="#dde9ed"/>
            </g>
          </g>
        </g>
        <g id="XMLID_601_" transform="translate(41.028 2.969)">
          <path id="Path_7624" data-name="Path 7624" d="M70.057,31.759l.821-.287s.633.051.775.222l.249.661-.9.755-.8-.4Z" transform="translate(-70.057 -31.472)" fill="#edd4b9"/>
        </g>
        <g id="XMLID_702_" transform="translate(22.249 10.854)">
          <g id="XMLID_704_">
            <g id="XMLID_710_" transform="translate(0 11.251)">
              <g id="XMLID_711_">
                <path id="Path_7639" data-name="Path 7639" d="M58.294,64.967H38.5V58.036h2.98v4H55.314v-4h2.981Z" transform="translate(-38.505 -58.036)" fill="#047475"/>
              </g>
            </g>
            <g id="XMLID_705_" transform="translate(3.705)">
              <g id="XMLID_662_">
                <path id="Path_7640" data-name="Path 7640" d="M46.764,47.717v7.275h6.662V47.717h2.858L50.1,41.635l-6.189,6.083Z" transform="translate(-43.906 -41.635)" fill="#fbb415"/>
              </g>
            </g>
          </g>
        </g>
      </g>
    </g>
  </g>
</svg>
